<svg width="81" height="63" viewBox="0 0 81 63" fill="none" xmlns="http://www.w3.org/2000/svg">
<path d="M61.0457 12.3917C62.3434 12.3917 63.3954 11.3736 63.3954 10.1176C63.3954 8.86166 62.3434 7.84351 61.0457 7.84351C59.7479 7.84351 58.6959 8.86166 58.6959 10.1176C58.6959 11.3736 59.7479 12.3917 61.0457 12.3917Z" fill="#00C9F0"/>
<path d="M52.1502 4.8963C53.5472 4.8963 54.6797 3.80022 54.6797 2.44815C54.6797 1.09607 53.5472 0 52.1502 0C50.7531 0 49.6206 1.09607 49.6206 2.44815C49.6206 3.80022 50.7531 4.8963 52.1502 4.8963Z" fill="#00C9F0"/>
<path d="M52.1382 13.2155C53.8795 13.2155 55.2912 11.8493 55.2912 10.164C55.2912 8.47874 53.8795 7.11255 52.1382 7.11255C50.3969 7.11255 48.9852 8.47874 48.9852 10.164C48.9852 11.8493 50.3969 13.2155 52.1382 13.2155Z" fill="#00C9F0"/>
<path d="M78.9205 49.6477H76.9664C76.2231 49.6477 75.6117 49.056 75.6117 48.3366V25.2127C75.6117 24.1104 75.336 23.2634 74.7845 22.6949C74.233 22.1264 73.4897 21.8363 72.5307 21.8363C71.5716 21.8363 70.8403 22.1264 70.3008 22.6949C69.7733 23.2634 69.5096 24.0988 69.5096 25.2127V48.325C69.5096 49.0444 68.8982 49.6361 68.1549 49.6361H66.1528C65.4095 49.6361 64.7981 49.0444 64.7981 48.325V25.2127C64.7981 24.1104 64.5224 23.2634 63.9709 22.6949C63.4194 22.1264 62.6881 21.8363 61.777 21.8363C59.727 21.8363 58.708 22.9618 58.708 25.2127V48.325C58.708 49.0444 58.0965 49.6361 57.3533 49.6361H55.3991C54.6558 49.6361 54.0444 49.0444 54.0444 48.325V19.8871C54.0444 18.8196 54.9436 17.9494 56.0465 17.9494C56.7179 17.9494 57.3533 18.2743 57.7249 18.808L57.9167 19.0749C58.0486 19.2605 58.3123 19.2605 58.4682 19.0865C59.3793 18.0423 60.6621 17.5317 62.3165 17.5317C63.7311 17.5317 64.8221 17.8102 65.6013 18.3671C66.2007 18.7964 66.6683 19.3417 66.992 20.0263C67.0999 20.2583 67.4356 20.2816 67.5794 20.0611C68.035 19.3417 68.5984 18.7732 69.2938 18.3439C70.157 17.8102 71.5236 17.5433 73.4058 17.5433C74.3649 17.5433 75.2521 17.729 76.0793 18.0887C76.9065 18.4483 77.6378 18.9589 78.2492 19.6202C78.8726 20.2816 79.3641 21.0705 79.7357 22.0103C80.1074 22.9385 80.2872 23.9828 80.2872 25.1198V48.3366C80.2752 49.056 79.6758 49.6477 78.9205 49.6477Z" fill="#444444"/>
<path d="M49.9323 19.6202C48.5896 18.2743 46.8033 17.6013 44.5854 17.6013C43.5305 17.6013 42.6073 17.7057 41.8281 17.9146C41.0488 18.1234 40.3655 18.4135 39.79 18.7732C39.5982 18.9008 39.4184 19.04 39.2386 19.1677V19.1445C39.2386 19.1445 38.6152 19.539 38.1117 20.2351C38.0997 20.2583 38.0757 20.2699 38.0637 20.2931C38.0517 20.3047 38.0517 20.3163 38.0397 20.3163C38.0158 20.3511 38.0038 20.3859 37.9798 20.4207C37.788 20.7688 37.74 21.1517 37.8239 21.5114H37.8119C37.9198 22.1959 38.5193 23.1126 39.7181 23.4374C39.802 23.4606 39.886 23.4838 39.9699 23.4954C39.9939 23.4954 40.0298 23.507 40.0538 23.5186C40.1137 23.5186 40.1617 23.5186 40.2216 23.5186C40.2336 23.5186 40.2576 23.5186 40.2696 23.5186C40.3415 23.5186 40.4134 23.507 40.4854 23.4954C40.7971 23.449 41.1088 23.3098 41.3725 23.0777C41.3725 23.0777 41.3845 23.0661 41.4085 23.0429C41.4205 23.0313 41.4325 23.0313 41.4325 23.0197C41.5404 22.9269 41.7801 22.7297 42.1877 22.486C42.2237 22.4628 42.2597 22.4512 42.2956 22.428C42.8711 22.0683 43.6024 21.8943 44.5135 21.8943C45.4726 21.8943 46.1679 22.2076 46.6115 22.8225C47.0551 23.449 47.2709 24.2612 47.2709 25.259V25.932C47.2709 26.5237 47.0191 27.0922 46.5635 27.4983C46.1679 27.8464 45.7243 28.1945 45.2568 28.5426C44.4775 29.0995 43.6623 29.6796 42.8231 30.283C41.972 30.8863 41.1328 31.5592 40.2816 32.3018C39.4304 33.0444 38.6751 33.8798 38.0038 34.8196C37.3324 35.7478 36.7809 36.8152 36.3613 38.0103C35.9417 39.2054 35.726 40.5745 35.726 42.1292C35.726 43.6143 35.9298 44.879 36.3374 45.9117C36.745 46.9443 37.2845 47.8029 37.9558 48.4758C38.6272 49.1488 39.3824 49.6477 40.2336 49.9494C41.0848 50.2626 41.924 50.4135 42.7752 50.4135C44.1179 50.4135 45.1969 50.1582 46.0121 49.6593C46.6475 49.2648 47.151 48.8239 47.5226 48.3134C47.6665 48.1162 47.9662 48.1394 48.0861 48.3482L48.2899 48.6847C48.6495 49.2996 49.3209 49.6825 50.0642 49.6825C51.1072 49.6825 51.9464 48.8703 51.9464 47.8609V25.2706C51.9464 22.8573 51.275 20.9661 49.9323 19.6202ZM47.3907 41.7115C47.3907 42.8138 47.103 43.7884 46.5156 44.6122C45.9281 45.4476 45.017 45.8536 43.7822 45.8536C42.6553 45.8536 41.7801 45.494 41.1807 44.763C40.5813 44.032 40.2816 43.0226 40.2816 41.6999C40.2816 40.5281 40.5333 39.4722 41.0488 38.5324C41.5643 37.6042 42.1877 36.7572 42.931 36.0146C43.6743 35.2721 44.4536 34.6339 45.2688 34.1002C45.5445 33.9146 45.8202 33.7405 46.072 33.5781C46.6355 33.2068 47.3907 33.6013 47.3907 34.2627V41.7115Z" fill="#444444"/>
<path d="M14.4704 19.4807C13.0438 18.1464 11.2095 17.4851 8.97969 17.4851C7.96067 17.4851 7.08551 17.6127 6.35421 17.8796C6.10245 17.9724 5.88666 18.0652 5.67087 18.1812C5.22729 18.4133 4.68781 18.1 4.68781 17.6011V9.18923C4.68781 8.29583 3.77669 7.65769 2.90153 7.94775L0.947405 8.57429C0.395935 8.74833 0.024292 9.25884 0.024292 9.81577V19.0398V41.7693V47.617C0.024292 48.6961 0.935416 49.5779 2.05034 49.5779C2.70971 49.5779 3.32112 49.2646 3.69277 48.7425C3.92055 48.4176 4.40009 48.348 4.6998 48.6149C5.0115 48.8933 5.38314 49.1834 5.82672 49.4967C6.58199 50.0304 7.63698 50.2972 8.97969 50.2972C10.1785 50.2972 11.2455 50.0652 12.1806 49.6011C13.1157 49.137 13.9069 48.5104 14.5663 47.7331C15.2137 46.9557 15.7172 46.0623 16.0769 45.0645C16.4245 44.0666 16.6044 43.0108 16.6044 41.897V25.1544C16.6163 22.6947 15.897 20.8034 14.4704 19.4807ZM11.9528 41.9086C11.9528 43.3937 11.5692 44.4031 10.8139 44.9484C10.0467 45.4822 9.19548 45.749 8.2364 45.749C7.27732 45.749 6.45012 45.4357 5.7428 44.8208C5.03548 44.1943 4.68781 43.2313 4.68781 41.9202V32.0579V25.1544C4.68781 24.0522 5.04746 23.2168 5.77876 22.6482C6.49807 22.0797 7.33726 21.7896 8.29634 21.7896C9.25542 21.7896 10.0946 22.0681 10.8379 22.625C11.5812 23.182 11.9528 24.029 11.9528 25.166V41.9086Z" fill="#444444"/>
<path d="M24.4688 39.6811C26.1832 39.2866 27.37 38.8225 28.5689 38.0799C30.0195 37.1865 31.1944 36.1771 32.1175 35.0748C33.0406 33.9726 33.7119 32.6847 34.1555 31.2344C34.5991 29.7957 34.8149 28.0089 34.8149 25.8856V25.874C34.8149 25.8624 34.8149 25.8624 34.8149 25.8508C34.8149 24.5165 34.5991 23.3446 34.1795 22.3352C33.7599 21.3142 33.1725 20.4556 32.4292 19.7362C31.6859 19.0285 30.8347 18.4947 29.8636 18.1234C28.8926 17.7638 27.8616 17.5781 26.7586 17.5781C25.6317 17.5781 24.5647 17.7406 23.5817 18.0654C22.5866 18.3903 21.7355 18.8892 21.0161 19.539C20.2968 20.2003 19.7214 21.0009 19.3258 21.9523C18.9182 22.8921 18.7263 23.9828 18.7144 25.201V25.2358V42.4657V42.5005C18.7144 43.7304 18.9182 44.8326 19.3258 45.8072C19.7334 46.7935 20.2848 47.6173 20.9922 48.3018C21.6995 48.9748 22.5267 49.4853 23.4858 49.8334C24.4448 50.1814 25.4759 50.3555 26.6148 50.3555C27.7057 50.3555 28.7487 50.1814 29.7198 49.8334C30.6908 49.4853 31.53 48.9748 32.2374 48.3018C32.9447 47.6289 33.4962 46.7935 33.9038 45.8072C34.2994 44.8558 34.4912 43.7768 34.5032 42.5817H34.5152V41.6767C34.5152 40.8065 33.664 40.2032 32.8128 40.412H32.8008C32.8008 40.412 30.9666 40.8297 30.4031 41.2242L30.3911 41.2358C30.3791 41.2474 30.3791 41.259 30.3672 41.2706C30.3552 41.2822 30.3312 41.2938 30.3192 41.3054C30.2473 41.3751 30.1753 41.4447 30.1154 41.5259C30.0914 41.5491 30.0794 41.5839 30.0555 41.6071C29.9955 41.6999 29.9476 41.7927 29.9116 41.8856C29.9116 41.8856 29.9116 41.8972 29.8996 41.8972C29.8277 42.0712 29.7917 42.2453 29.7797 42.4309C29.7797 42.4425 29.7797 42.4541 29.7797 42.4541C29.7797 43.5215 29.48 44.3453 28.8806 44.9138C28.2812 45.4824 27.5259 45.7724 26.6028 45.7724C25.6077 45.7724 24.8285 45.4824 24.241 44.9138C23.6536 44.3453 23.3659 43.5215 23.3659 42.4541V40.9922C23.3779 40.4236 23.8694 39.8203 24.4688 39.6811ZM23.3779 25.259C23.3779 24.1568 23.7016 23.3098 24.3609 22.7413C25.0203 22.1728 25.8235 21.8827 26.7706 21.8827C27.6937 21.8827 28.485 22.196 29.1563 22.8109C29.8277 23.4258 30.1634 24.5281 30.1634 26.1176C30.1634 27.3127 30.0794 28.3801 29.8996 29.3084C29.7198 30.2366 29.3841 31.0952 28.8926 31.8493C28.401 32.6151 27.7057 33.3112 26.8306 33.9494C25.8595 34.6223 24.8045 34.9704 24.0612 34.7732C24.0013 34.7616 23.9413 34.7384 23.8814 34.7152C23.8694 34.7152 23.8574 34.7036 23.8454 34.7036C23.5817 34.5643 23.3899 34.3091 23.3899 33.9842L23.3779 25.259Z" fill="#444444"/>
<path d="M0.35699 60.9038C0.666382 61.3211 1.24947 61.6688 1.88015 61.6688C2.58223 61.6688 2.96302 61.3072 2.96302 60.7786C2.96302 60.1805 2.40373 59.9997 1.78495 59.8189C0.999573 59.6103 0.118997 59.3599 0.118997 58.2472C0.118997 57.4127 0.73778 56.7034 1.83255 56.7034C2.61793 56.7034 3.16531 57.0511 3.5461 57.4823L3.21291 58.0664C2.93922 57.677 2.42753 57.3849 1.83255 57.3849C1.20187 57.3849 0.809178 57.7187 0.809178 58.2055C0.809178 58.734 1.33276 58.9009 1.93965 59.0679C2.73693 59.2765 3.6651 59.5407 3.6651 60.7369C3.6651 61.641 3.04632 62.3642 1.85635 62.3642C1.10667 62.3642 0.464087 62.0999 0 61.5158L0.35699 60.9038Z" fill="#444444"/>
<path d="M10.3883 58.5671C10.3883 57.8856 10.1265 57.4544 9.54345 57.4544C9.06746 57.4544 8.55578 57.8578 8.31778 58.2751V62.2251H7.6038V58.5671C7.6038 57.8856 7.35391 57.4544 6.75892 57.4544C6.29484 57.4544 5.79505 57.8578 5.54516 58.289V62.2251H4.83118V56.8425H5.54516V57.6213C5.73555 57.2736 6.35434 56.7034 7.03262 56.7034C7.7347 56.7034 8.13929 57.1484 8.27018 57.7048C8.53198 57.218 9.15076 56.7034 9.81714 56.7034C10.662 56.7034 11.1023 57.2458 11.1023 58.3307V62.2251H10.3883V58.5671Z" fill="#444444"/>
<path d="M15.422 61.6131C15.0412 62.0999 14.5177 62.3642 13.8989 62.3642C13.1135 62.3642 12.2805 61.7522 12.2805 60.5839C12.2805 59.3738 13.1135 58.8036 13.8989 58.8036C14.5296 58.8036 15.0531 59.04 15.422 59.5407V58.5671C15.422 57.8439 14.9222 57.4266 14.2559 57.4266C13.6966 57.4266 13.2563 57.6631 12.8398 58.1777L12.5066 57.5935C13.0064 56.9955 13.5895 56.7034 14.3511 56.7034C15.3268 56.7034 16.136 57.218 16.136 58.5254V62.2251H15.422V61.6131ZM15.422 60.0693C15.1483 59.6242 14.6605 59.4017 14.1488 59.4017C13.4824 59.4017 13.0183 59.8885 13.0183 60.5839C13.0183 61.2654 13.4824 61.7522 14.1488 61.7522C14.6605 61.7522 15.1364 61.5297 15.422 61.0846V60.0693Z" fill="#444444"/>
<path d="M17.564 56.8422H18.2779V57.7185C18.6468 57.1482 19.1823 56.731 19.813 56.731V57.5933C19.7297 57.5655 19.6464 57.5655 19.5274 57.5655C19.0871 57.5655 18.4921 57.9827 18.2779 58.4278V62.2388H17.564V56.8422Z" fill="#444444"/>
<path d="M20.8601 61.0983V57.5794H20.0985V56.8422H20.8601V55.3679H21.5741V56.8422H22.5141V57.5794H21.5741V60.9314C21.5741 61.3348 21.7288 61.6268 22.0382 61.6268C22.2405 61.6268 22.4308 61.5295 22.526 61.4043L22.7402 62.0302C22.5617 62.2249 22.3 62.3779 21.8835 62.3779C21.2052 62.364 20.8601 61.905 20.8601 61.0983Z" fill="#444444"/>
<path d="M25.5248 56.7034C26.9171 56.7034 27.7382 57.9691 27.7382 59.5964V59.805H24.0017C24.0612 60.8203 24.6681 61.6688 25.6676 61.6688C26.1912 61.6688 26.7267 61.4184 27.0956 60.9873L27.4407 61.5297C26.9766 62.0721 26.3578 62.3503 25.6081 62.3503C24.2397 62.3503 23.2639 61.1959 23.2639 59.5129C23.252 57.9691 24.2159 56.7034 25.5248 56.7034ZM24.0136 59.193H27.0361C27.0242 58.3863 26.572 57.3988 25.5129 57.3988C24.5372 57.3988 24.0493 58.3585 24.0136 59.193Z" fill="#444444"/>
<path d="M28.8923 56.8422H29.6063V57.7185C29.9752 57.1482 30.5107 56.731 31.1414 56.731V57.5933C31.0581 57.5655 30.9748 57.5655 30.8558 57.5655C30.4155 57.5655 29.8205 57.9827 29.6063 58.4278V62.2388H28.8923V56.8422Z" fill="#444444"/>
<path d="M37.8529 61.4184C37.5078 61.9608 36.9485 62.3503 36.2941 62.3503C35.0922 62.3503 34.2473 61.2793 34.2473 59.5268C34.2473 57.8021 35.0922 56.6894 36.2941 56.6894C36.9128 56.6894 37.4721 57.051 37.8529 57.6352V54.77H38.5669V62.2112H37.8529V61.4184ZM37.8529 58.3167C37.5911 57.8438 37.0437 57.4405 36.4726 57.4405C35.5444 57.4405 34.997 58.3306 34.997 59.5268C34.997 60.7229 35.5563 61.5992 36.4726 61.5992C37.0437 61.5992 37.603 61.2237 37.8529 60.7508V58.3167Z" fill="#444444"/>
<path d="M42.0058 56.7034C43.3981 56.7034 44.2191 57.9691 44.2191 59.5964V59.805H40.4826C40.5421 60.8203 41.149 61.6688 42.1486 61.6688C42.6722 61.6688 43.2077 61.4184 43.5766 60.9873L43.9216 61.5297C43.4576 62.0721 42.8388 62.3503 42.0891 62.3503C40.7206 62.3503 39.7449 61.1959 39.7449 59.5129C39.733 57.9691 40.6849 56.7034 42.0058 56.7034ZM40.4826 59.193H43.5052C43.4933 58.3863 43.0411 57.3988 41.982 57.3988C41.0062 57.3988 40.5183 58.3585 40.4826 59.193Z" fill="#444444"/>
<path d="M48.4793 58.7062C48.4793 57.7604 48.0747 57.4544 47.444 57.4544C46.8847 57.4544 46.3492 57.8578 46.0756 58.289V62.2251H45.3616V56.8425H46.0756V57.6213C46.3968 57.1763 47.0275 56.7034 47.7177 56.7034C48.6816 56.7034 49.1933 57.2736 49.1933 58.442V62.2251H48.4793V58.7062Z" fill="#444444"/>
<path d="M50.776 61.0983V57.5794H50.0144V56.8422H50.776V55.3679H51.49V56.8422H52.43V57.5794H51.49V60.9314C51.49 61.3348 51.6447 61.6268 51.954 61.6268C52.1563 61.6268 52.3467 61.5295 52.4419 61.4043L52.6561 62.0302C52.4776 62.2249 52.2158 62.3779 51.7994 62.3779C51.1092 62.364 50.776 61.905 50.776 61.0983Z" fill="#444444"/>
<path d="M56.3212 61.6131C55.9404 62.0999 55.4168 62.3642 54.798 62.3642C54.0127 62.3642 53.1797 61.7522 53.1797 60.5839C53.1797 59.3738 54.0127 58.8036 54.798 58.8036C55.4287 58.8036 55.9523 59.04 56.3212 59.5407V58.5671C56.3212 57.8439 55.8214 57.4266 55.155 57.4266C54.5957 57.4266 54.1555 57.6631 53.739 58.1777L53.4058 57.5935C53.9056 56.9955 54.4887 56.7034 55.2502 56.7034C56.226 56.7034 57.0352 57.218 57.0352 58.5254V62.2251H56.3212V61.6131ZM56.3212 60.0693C56.0475 59.6242 55.5596 59.4017 55.0479 59.4017C54.3816 59.4017 53.9175 59.8885 53.9175 60.5839C53.9175 61.2654 54.3816 61.7522 55.0479 61.7522C55.5596 61.7522 56.0356 61.5297 56.3212 61.0846V60.0693Z" fill="#444444"/>
<path d="M58.4631 54.7839H59.3176V62.2251H58.4631V54.7839Z" fill="#444444"/>
<path d="M65.1032 56.7034C65.948 56.7034 66.4359 57.1067 66.7929 57.6353L66.3169 58.1499C66.0075 57.6631 65.6148 57.4405 65.1389 57.4405C64.1512 57.4405 63.5443 58.3168 63.5443 59.5129C63.5443 60.7091 64.1512 61.5992 65.1389 61.5992C65.6148 61.5992 66.0075 61.3767 66.3169 60.8899L66.7929 61.4045C66.4359 61.947 65.948 62.3364 65.1032 62.3364C63.7228 62.3364 62.8065 61.1124 62.8065 59.499C62.8065 57.9273 63.7347 56.7034 65.1032 56.7034Z" fill="#444444"/>
<path d="M70.6841 61.6131C70.3033 62.0999 69.7797 62.3642 69.161 62.3642C68.3756 62.3642 67.5426 61.7522 67.5426 60.5839C67.5426 59.3738 68.3756 58.8036 69.161 58.8036C69.7916 58.8036 70.3152 59.04 70.6841 59.5407V58.5671C70.6841 57.8439 70.1843 57.4266 69.5179 57.4266C68.9587 57.4266 68.5184 57.6631 68.1019 58.1777L67.7687 57.5935C68.2685 56.9955 68.8516 56.7034 69.6131 56.7034C70.5889 56.7034 71.3981 57.218 71.3981 58.5254V62.2251H70.6841V61.6131ZM70.6841 60.0693C70.4104 59.6242 69.9225 59.4017 69.4109 59.4017C68.7445 59.4017 68.2804 59.8885 68.2804 60.5839C68.2804 61.2654 68.7445 61.7522 69.4109 61.7522C69.9225 61.7522 70.3985 61.5297 70.6841 61.0846V60.0693Z" fill="#444444"/>
<path d="M72.826 56.8422H73.54V57.7185C73.9089 57.1482 74.4444 56.731 75.0751 56.731V57.5933C74.9918 57.5655 74.9085 57.5655 74.7895 57.5655C74.3492 57.5655 73.7542 57.9827 73.54 58.4278V62.2388H72.826V56.8422Z" fill="#444444"/>
<path d="M77.9786 56.7034C79.3708 56.7034 80.1919 57.9691 80.1919 59.5964V59.805H76.4554C76.5149 60.8203 77.1218 61.6688 78.1214 61.6688C78.645 61.6688 79.1804 61.4184 79.5493 60.9873L79.8944 61.5297C79.4303 62.0721 78.8116 62.3503 78.0619 62.3503C76.6934 62.3503 75.7176 61.1959 75.7176 59.5129C75.7057 57.9691 76.6577 56.7034 77.9786 56.7034ZM76.4673 59.193H79.4898C79.4779 58.3863 79.0257 57.3988 77.9667 57.3988C76.9909 57.3988 76.503 58.3585 76.4673 59.193Z" fill="#444444"/>
</svg>
