<svg width="193" height="51" viewBox="0 0 193 51" fill="none" xmlns="http://www.w3.org/2000/svg">
<path fill-rule="evenodd" clip-rule="evenodd" d="M62.7692 10.4654C62.7672 11.9099 61.5946 13.0791 60.1501 13.0769C58.7056 13.0749 57.5363 11.9022 57.5385 10.4578C57.5406 9.01336 58.7132 7.84403 60.1577 7.84616C61.6022 7.8483 62.7715 9.02097 62.7692 10.4654Z" fill="#00C9F0"/>
<path fill-rule="evenodd" clip-rule="evenodd" d="M53.6154 2.61923C53.6133 4.06369 52.4406 5.23288 50.9962 5.23077C49.5518 5.22878 48.3825 4.05612 48.3846 2.61166C48.3868 1.16721 49.5594 -0.00210603 51.0039 2.84808e-06C52.4482 0.00211173 53.6175 1.17477 53.6154 2.61923Z" fill="#00C9F0"/>
<path fill-rule="evenodd" clip-rule="evenodd" d="M53.6154 11.1201C53.6128 12.9257 52.1469 14.3874 50.3413 14.3846C48.5358 14.382 47.0742 12.9162 47.0769 11.1105C47.0795 9.30498 48.5454 7.84343 50.3509 7.84616C52.1565 7.84877 53.618 9.31455 53.6154 11.1201Z" fill="#00C9F0"/>
<path fill-rule="evenodd" clip-rule="evenodd" d="M78.418 51H76.4706C75.7242 51 75.1193 50.4021 75.1193 49.6645V26.1243C75.1193 24.9976 74.8459 24.1435 74.3004 23.5625C73.7547 22.982 73.0061 22.6915 72.0557 22.6915C71.1042 22.6915 70.365 22.982 69.8358 23.5625C69.3078 24.1435 69.0438 24.9976 69.0438 26.1243V49.6645C69.0438 50.4021 68.4389 51 67.6927 51H65.6924C64.946 51 64.3411 50.4021 64.3411 49.6645V26.1243C64.3411 24.9976 64.0677 24.1435 63.5221 23.5625C62.9753 22.982 62.2455 22.6915 61.3292 22.6915C59.2864 22.6915 58.2644 23.8362 58.2644 26.1243V49.6645C58.2644 50.4021 57.6595 51 56.9132 51H54.9665C54.2203 51 53.6154 50.4021 53.6154 49.6645V20.7003C53.6154 19.6123 54.5076 18.7304 55.6084 18.7304H55.6089C56.2792 18.7304 56.906 19.0579 57.2836 19.6053L57.4735 19.8808C57.6031 20.0686 57.8718 20.0692 58.0205 19.8958C58.927 18.8373 60.2062 18.3077 61.8583 18.3077C63.2663 18.3077 64.3587 18.59 65.1343 19.1525C65.7317 19.588 66.1939 20.1498 66.5194 20.8371C66.6315 21.074 66.964 21.0955 67.1018 20.8723C67.5537 20.1412 68.1211 19.5594 68.8056 19.1264C69.668 18.5808 71.0326 18.3077 72.9006 18.3077C73.8521 18.3077 74.7404 18.4927 75.5687 18.862C76.3958 19.232 77.1186 19.7515 77.7347 20.4201C78.3507 21.0894 78.8446 21.8988 79.2142 22.8497C79.5838 23.8002 79.7692 24.8567 79.7692 26.0188V49.6645C79.7692 50.4021 79.1643 51 78.418 51Z" fill="#444444"/>
<path fill-rule="evenodd" clip-rule="evenodd" d="M46.5899 42.3237C46.5899 43.426 46.3081 44.3894 45.7438 45.2157C45.1795 46.0418 44.2992 46.4552 43.1029 46.4552C42.0086 46.4552 41.1709 46.0934 40.5901 45.3705C40.0082 44.6475 39.7184 43.6324 39.7184 42.3237C39.7184 41.1532 39.966 40.1025 40.462 39.1731C40.9568 38.2433 41.5643 37.4092 42.2823 36.668C43.0003 35.928 43.752 35.2913 44.5389 34.7569C44.8105 34.5726 45.0699 34.3974 45.317 34.2315C45.8613 33.8662 46.5899 34.2584 46.5899 34.912V42.3237ZM49.0514 20.3217C47.7521 18.979 46.0257 18.3077 43.8722 18.3077C42.8466 18.3077 41.9573 18.411 41.2056 18.6173C40.4528 18.8242 39.7953 19.1084 39.231 19.4696C39.0406 19.5917 38.8738 19.7306 38.7028 19.8664V19.8455C38.7028 19.8455 38.1024 20.2428 37.6123 20.9348C37.5979 20.954 37.5831 20.9728 37.5699 20.9927C37.5635 21.002 37.5567 21.0102 37.5503 21.0195C37.5262 21.0556 37.5111 21.0893 37.4966 21.123C37.3112 21.4648 37.2594 21.8501 37.3442 22.2069L37.3378 22.2071C37.4464 22.8873 38.0255 23.8014 39.1846 24.124C39.2645 24.1496 39.3451 24.1718 39.4282 24.1841C39.4566 24.1895 39.4806 24.1996 39.5096 24.2042C39.5693 24.208 39.6181 24.2029 39.6717 24.202C39.6883 24.2017 39.7045 24.2018 39.721 24.2012C39.7949 24.1976 39.8627 24.1894 39.9254 24.177C40.2319 24.127 40.5292 23.9896 40.7815 23.766L40.7866 23.7679C40.7866 23.7679 40.8011 23.7533 40.8226 23.7326C40.8309 23.725 40.8404 23.7195 40.8487 23.7116L40.8467 23.7098C40.9481 23.6159 41.1837 23.4169 41.5718 23.1833C41.6074 23.1623 41.6447 23.1463 41.6799 23.1238C42.2354 22.7709 42.9491 22.5945 43.8209 22.5945C44.7439 22.5945 45.4187 22.9041 45.8462 23.5239C46.2733 24.1436 46.4873 24.9528 46.4873 25.9515L46.4874 26.616C46.4874 27.2064 46.2451 27.7716 45.8082 28.1708C45.4237 28.5222 45.0005 28.8669 44.5389 29.2051C43.7862 29.7563 43.0003 30.3335 42.1799 30.9352C41.3594 31.538 40.5389 32.2092 39.7184 32.9493C38.8978 33.6905 38.1622 34.5246 37.5131 35.4544C36.8633 36.3839 36.3338 37.4425 35.9232 38.6305C35.5134 39.8184 35.3077 41.1873 35.3077 42.7365C35.3077 44.2175 35.5042 45.4736 35.8976 46.5068C36.2905 47.5398 36.8121 48.3921 37.4618 49.0637C38.1109 49.7349 38.8466 50.2255 39.6671 50.5351C40.4876 50.8452 41.3081 51 42.1286 51C43.4275 51 44.47 50.7501 45.2564 50.251C45.8704 49.8618 46.3591 49.4143 46.7232 48.9089C46.8614 48.7167 47.1515 48.7356 47.2682 48.9412L47.4613 49.2815C47.8101 49.8967 48.4645 50.277 49.1741 50.277H49.1771C50.1838 50.277 51 49.4642 51 48.4616V25.9515C51 23.5415 50.3503 21.6646 49.0514 20.3217Z" fill="#444444"/>
<path fill-rule="evenodd" clip-rule="evenodd" d="M11.2806 42.4546C11.2806 43.967 10.921 44.9961 10.2024 45.5405C9.48366 46.086 8.67373 46.3582 7.77079 46.3582C6.86841 46.3582 6.08286 46.042 5.41481 45.4089C4.74575 44.7759 4.41172 43.7914 4.41172 42.4546V32.4307H4.41229V25.4093C4.41388 24.288 4.75561 23.4369 5.43988 22.8582C6.12415 22.2782 6.91843 21.988 7.82092 21.988C8.72386 21.988 9.52597 22.2697 10.2274 22.8322C10.9293 23.3948 11.2806 24.2562 11.2806 25.4168V42.4546ZM13.6622 19.6407C12.3083 18.2873 10.5787 17.61 8.47275 17.61C7.503 17.61 6.67571 17.7418 5.9911 18.0053C5.75802 18.0951 5.54343 18.1958 5.3471 18.308C4.92461 18.5491 4.41229 18.2212 4.41229 17.7197L4.41172 17.7201V9.18116C4.41172 8.27057 3.55437 7.62772 2.72425 7.91564L0.876741 8.55601C0.353192 8.73761 0 9.24736 0 9.82154V48.269C0 49.3695 0.857573 50.2615 1.91533 50.2615C2.5362 50.2615 3.11691 49.9423 3.46681 49.4089L3.46738 49.4081C3.6847 49.0768 4.13656 49.0116 4.41989 49.2837C4.70979 49.562 5.0665 49.8616 5.49001 50.1824C6.20808 50.7272 7.20232 51 8.47275 51C9.60888 51 10.6198 50.7627 11.5061 50.2882C12.3912 49.8134 13.1433 49.1802 13.7623 48.3893C14.3803 47.5977 14.8567 46.693 15.1913 45.6724C15.5248 44.6531 15.6923 43.5803 15.6923 42.4546V25.4168C15.6923 22.9201 15.0154 20.9947 13.6622 19.6407Z" fill="#444444"/>
<path fill-rule="evenodd" clip-rule="evenodd" d="M22.8499 25.9608C22.8499 24.8576 23.168 24.0214 23.8048 23.4525C24.4416 22.8841 25.2245 22.5997 26.1536 22.5997C27.0482 22.5997 27.8226 22.9097 28.4765 23.5303C29.1275 24.1484 29.4544 25.2472 29.4567 26.8233C29.4555 28.0203 29.3701 29.0812 29.1993 30.0053C29.0267 30.9365 28.7 31.7813 28.2185 32.5393C27.736 33.2984 27.0648 33.996 26.2051 34.6337C25.2549 35.3084 24.2305 35.6472 23.5127 35.4566C23.4508 35.4439 23.392 35.4245 23.335 35.3984C23.323 35.3933 23.3091 35.3916 23.2974 35.386L23.2976 35.3819C23.0398 35.2485 22.8499 34.9871 22.8499 34.6608V25.9608ZM23.9147 40.3457C25.5882 39.948 26.7439 39.4851 27.9085 38.7448C29.3196 37.8488 30.4716 36.8491 31.3669 35.7453C32.2617 34.6428 32.9235 33.3672 33.3546 31.9187C33.7817 30.4803 33.9967 28.7008 33.9995 26.5814H33.9999C33.9999 26.5762 33.9996 26.5712 33.9996 26.566C33.9996 26.5576 34 26.5496 34 26.5411H33.9992C33.995 25.2137 33.7889 24.0463 33.3804 23.0391C32.9671 22.0223 32.3997 21.1603 31.677 20.4535C30.9542 19.7475 30.1198 19.2125 29.1734 18.8503C28.2266 18.4887 27.2201 18.3077 26.1536 18.3077C25.0519 18.3077 24.0198 18.4716 23.0568 18.7986C22.0927 19.1268 21.2577 19.6178 20.5533 20.2726C19.8471 20.9277 19.2963 21.7292 18.9015 22.6769C18.5098 23.6152 18.3128 24.6961 18.3085 25.9205H18.3077V43.1804L18.3085 43.179C18.3127 44.4042 18.5097 45.5034 18.9015 46.4757C19.2963 47.4579 19.8386 48.2851 20.5275 48.9573C21.2153 49.6296 22.0239 50.1387 22.953 50.4829C23.8827 50.8275 24.8972 51 25.9988 51C27.0648 51 28.0719 50.8275 29.0187 50.4829C29.9645 50.1387 30.7817 49.6296 31.4706 48.9573C32.1584 48.2851 32.7006 47.4579 33.0967 46.4757C33.4783 45.5261 33.672 44.4531 33.6849 43.2622L33.6931 43.261V42.3561C33.6931 41.4927 32.8669 40.8828 32.0393 41.0989L32.0317 41.0935C32.0317 41.0935 30.2496 41.5085 29.6965 41.9081L29.6793 41.9148C29.6692 41.9234 29.6625 41.9351 29.6527 41.9439C29.639 41.9553 29.6222 41.9668 29.6107 41.9783L29.6166 41.9835C29.5466 42.0518 29.4775 42.1207 29.4196 42.1996C29.3991 42.2263 29.3848 42.2562 29.3664 42.2846C29.309 42.3738 29.2605 42.468 29.2211 42.5679C29.2191 42.5737 29.2167 42.5791 29.2149 42.5849C29.1504 42.7536 29.1051 42.9319 29.1003 43.1221C29.0982 43.1311 29.0961 43.1402 29.0961 43.1402C29.0961 44.2092 28.8032 45.0274 28.2185 45.5963C27.6328 46.1652 26.8935 46.4496 25.9988 46.4496C25.0348 46.4496 24.2697 46.1652 23.7015 45.5963C23.1342 45.0274 22.8499 44.2092 22.8499 43.1402V41.6773C22.85 41.0822 23.3305 40.4845 23.9147 40.3457Z" fill="#444444"/>
<path fill-rule="evenodd" clip-rule="evenodd" d="M95.9998 28.0342C96.6722 28.8593 97.838 29.5195 99.4291 29.5195C101.425 29.5195 102.635 28.5292 102.635 27.2087C102.635 25.7437 101.021 25.3517 99.3622 24.9389C97.5693 24.5057 95.6858 24.0724 95.6858 22.2565C95.6858 20.7917 97.0305 19.6154 99.3622 19.6154C101.223 19.6154 102.389 20.2963 103.084 21.1217L102.59 21.5346C101.963 20.7091 100.82 20.1727 99.3622 20.1727C97.4797 20.1727 96.3593 21.0804 96.3593 22.2565C96.3593 23.5567 97.8608 23.8867 99.4531 24.2786C101.313 24.7121 103.308 25.1866 103.308 27.2087C103.308 28.7564 102.052 30.0769 99.4291 30.0769C97.7257 30.0769 96.5384 29.6227 95.4615 28.488L95.9998 28.0342Z" fill="#444444"/>
<path fill-rule="evenodd" clip-rule="evenodd" d="M117.102 22.7223C117.102 21.1371 116.493 20.1862 115.055 20.1862C113.992 20.1862 112.693 21.0525 112.103 22.0883V30.0769H111.512V22.7223C111.512 21.1371 110.902 20.1862 109.466 20.1862C108.402 20.1862 107.143 21.0737 106.512 22.1094V30.0769H105.923V19.8691H106.512V21.4754C106.907 20.7992 108.206 19.6154 109.563 19.6154C111.06 19.6154 111.828 20.6088 112.024 21.56C112.555 20.6088 113.835 19.6154 115.153 19.6154C116.886 19.6154 117.692 20.6934 117.692 22.7223V30.0769H117.102V22.7223Z" fill="#444444"/>
<path fill-rule="evenodd" clip-rule="evenodd" d="M128.818 25.5169C128.026 24.5057 126.76 23.9899 125.41 23.9899C123.524 23.9899 122.324 25.2073 122.324 26.755C122.324 28.3022 123.524 29.5195 125.41 29.5195C126.76 29.5195 128.026 29.0037 128.818 27.9929V25.5169ZM128.818 28.6118C127.854 29.6227 126.696 30.0769 125.239 30.0769C123.417 30.0769 121.615 28.8798 121.615 26.755C121.615 24.6295 123.395 23.4329 125.239 23.4329C126.696 23.4329 127.854 23.8867 128.818 24.8975V22.6488C128.818 21.0392 127.49 20.1727 125.903 20.1727C124.552 20.1727 123.546 20.6266 122.581 21.7407L122.087 21.3282C123.095 20.1934 124.167 19.6154 125.903 19.6154C127.94 19.6154 129.462 20.6059 129.462 22.6281V29.8292H128.818V28.6118Z" fill="#444444"/>
<path fill-rule="evenodd" clip-rule="evenodd" d="M132.077 19.8069H132.677V21.678C133.538 20.466 134.599 19.6154 136 19.6154V20.3809C135.82 20.3596 135.699 20.3596 135.519 20.3596C134.499 20.3596 133.118 21.4229 132.677 22.3796V30.0769H132.077V19.8069Z" fill="#444444"/>
<path fill-rule="evenodd" clip-rule="evenodd" d="M139.074 28.0539V20.3162H137.308V19.7531H139.074V17H139.735V19.7531H141.899V20.3162H139.735V28.0539C139.735 28.9087 140.089 29.5135 140.883 29.5135C141.413 29.5135 141.876 29.2635 142.141 28.9714L142.538 29.4513C142.119 29.8265 141.678 30.0769 140.883 30.0769C139.647 30.0769 139.074 29.3052 139.074 28.0539Z" fill="#444444"/>
<path fill-rule="evenodd" clip-rule="evenodd" d="M144.537 24.485H152.35C152.35 22.5661 151.112 20.1727 148.433 20.1727C145.916 20.1727 144.598 22.5248 144.537 24.485ZM148.453 19.6154C151.457 19.6154 153 22.071 153 24.836V25.0421H144.537C144.598 27.4771 146.16 29.5195 148.656 29.5195C150.037 29.5195 151.152 29.0037 152.066 28.0135L152.431 28.4054C151.436 29.4579 150.3 30.0769 148.656 30.0769C145.815 30.0769 143.846 27.869 143.846 24.836C143.846 21.9472 145.815 19.6154 148.453 19.6154Z" fill="#444444"/>
<path fill-rule="evenodd" clip-rule="evenodd" d="M155.615 19.8069H156.216V21.678C157.076 20.466 158.137 19.6154 159.538 19.6154V20.3809C159.357 20.3596 159.238 20.3596 159.058 20.3596C158.037 20.3596 156.656 21.4229 156.216 22.3796V30.0769H155.615V19.8069Z" fill="#444444"/>
<path fill-rule="evenodd" clip-rule="evenodd" d="M103.96 41.5997C103.307 40.519 101.803 39.5232 100.169 39.5232C97.5981 39.5232 96.1807 41.6421 96.1807 44.3321C96.1807 47.023 97.5981 49.1203 100.169 49.1203C101.803 49.1203 103.307 48.1668 103.96 47.0862V41.5997ZM103.96 47.7222C103.242 48.7812 101.826 49.6923 100.169 49.6923C97.3356 49.6923 95.4615 47.5734 95.4615 44.3321C95.4615 41.1126 97.3356 38.9512 100.169 38.9512C101.738 38.9512 103.11 39.7567 103.96 40.9638V35.3077H104.615V49.438H103.96V47.7222Z" fill="#444444"/>
<path fill-rule="evenodd" clip-rule="evenodd" d="M107.922 44.1008H115.735C115.735 42.1812 114.497 39.7879 111.818 39.7879C109.3 39.7879 107.982 42.1407 107.922 44.1008ZM111.839 39.2308C114.841 39.2308 116.385 41.6865 116.385 44.4514V44.6578H107.922C107.982 47.0925 109.545 49.1352 112.041 49.1352C113.422 49.1352 114.536 48.6195 115.45 47.6286L115.816 48.0212C114.821 49.073 113.684 49.6923 112.041 49.6923C109.2 49.6923 107.231 47.4844 107.231 44.4514C107.231 41.5626 109.2 39.2308 111.839 39.2308Z" fill="#444444"/>
<path fill-rule="evenodd" clip-rule="evenodd" d="M127.494 42.5703C127.494 40.4357 126.391 39.8014 124.739 39.8014C123.284 39.8014 121.719 40.7102 120.969 41.7245V49.6923H120.308V39.4846H120.969V41.0909C121.763 40.1612 123.349 39.2308 124.827 39.2308C126.942 39.2308 128.154 40.1612 128.154 42.5703V49.6923H127.494V42.5703Z" fill="#444444"/>
<path fill-rule="evenodd" clip-rule="evenodd" d="M131.227 47.6692V39.9315H129.462V39.3685H131.227V36.6154H131.889V39.3685H134.053V39.9315H131.889V47.6692C131.889 48.5245 132.243 49.1292 133.037 49.1292C133.567 49.1292 134.03 48.8788 134.295 48.5867L134.692 49.0663C134.272 49.4419 133.831 49.6923 133.037 49.6923C131.801 49.6923 131.227 48.9205 131.227 47.6692Z" fill="#444444"/>
<path fill-rule="evenodd" clip-rule="evenodd" d="M141.896 45.1323C141.102 44.121 139.838 43.6053 138.487 43.6053C136.6 43.6053 135.399 44.8222 135.399 46.3703C135.399 47.9176 136.6 49.1352 138.487 49.1352C139.838 49.1352 141.102 48.6195 141.896 47.6082V45.1323ZM141.896 48.2269C140.931 49.2381 139.774 49.6923 138.315 49.6923C136.493 49.6923 134.692 48.4956 134.692 46.3703C134.692 44.245 136.471 43.0483 138.315 43.0483C139.774 43.0483 140.931 43.5024 141.896 44.513V42.2638C141.896 40.6549 140.567 39.7879 138.98 39.7879C137.63 39.7879 136.622 40.242 135.656 41.3561L135.164 40.9432C136.171 39.8089 137.243 39.2308 138.98 39.2308C141.017 39.2308 142.538 40.221 142.538 42.2434V49.4446H141.896V48.2269Z" fill="#444444"/>
<path fill-rule="evenodd" clip-rule="evenodd" d="M146.462 49.6923H147.115V35.3077H146.462V49.6923Z" fill="#444444"/>
<path fill-rule="evenodd" clip-rule="evenodd" d="M160.168 39.2308C161.746 39.2308 162.643 39.8501 163.462 40.902L163.023 41.2735C162.244 40.1805 161.326 39.7879 160.207 39.7879C157.731 39.7879 156.274 41.8516 156.274 44.4514C156.274 47.0511 157.731 49.1352 160.207 49.1352C161.326 49.1352 162.244 48.7224 163.023 47.6286L163.462 48.0212C162.643 49.073 161.746 49.6923 160.168 49.6923C157.373 49.6923 155.615 47.3192 155.615 44.4514C155.615 41.5829 157.373 39.2308 160.168 39.2308Z" fill="#444444"/>
<path fill-rule="evenodd" clip-rule="evenodd" d="M173.28 45.1323C172.487 44.121 171.222 43.6053 169.871 43.6053C167.984 43.6053 166.784 44.8222 166.784 46.3703C166.784 47.9176 167.984 49.1352 169.871 49.1352C171.222 49.1352 172.487 48.6195 173.28 47.6082V45.1323ZM173.28 48.2269C172.315 49.2381 171.158 49.6923 169.7 49.6923C167.878 49.6923 166.077 48.4956 166.077 46.3703C166.077 44.245 167.857 43.0483 169.7 43.0483C171.158 43.0483 172.315 43.5024 173.28 44.513V42.2638C173.28 40.6549 171.952 39.7879 170.365 39.7879C169.014 39.7879 168.006 40.242 167.042 41.3561L166.549 40.9432C167.556 39.8089 168.629 39.2308 170.365 39.2308C172.402 39.2308 173.923 40.221 173.923 42.2434V49.4446H173.28V48.2269Z" fill="#444444"/>
<path fill-rule="evenodd" clip-rule="evenodd" d="M176.538 39.4219H177.139V41.2933C177.999 40.0811 179.06 39.2308 180.462 39.2308V39.9959C180.28 39.9749 180.161 39.9749 179.981 39.9749C178.96 39.9749 177.579 41.038 177.139 41.9951V49.6923H176.538V39.4219Z" fill="#444444"/>
<path fill-rule="evenodd" clip-rule="evenodd" d="M183.767 44.1008H191.581C191.581 42.1812 190.342 39.7879 187.664 39.7879C185.147 39.7879 183.827 42.1407 183.767 44.1008ZM187.684 39.2308C190.689 39.2308 192.231 41.6865 192.231 44.4514V44.6578H183.767C183.827 47.0925 185.39 49.1352 187.887 49.1352C189.267 49.1352 190.384 48.6195 191.296 47.6286L191.662 48.0212C190.667 49.073 189.531 49.6923 187.887 49.6923C185.045 49.6923 183.077 47.4844 183.077 44.4514C183.077 41.5626 185.045 39.2308 187.684 39.2308Z" fill="#444444"/>
</svg>
